# xmcd
#
# Track frame offsets:
#	150
#	14612
#	26251
#	39495
#	50627
#	60250
#	74984
#	88628
#	101147
#	112785
#	128709
#	142147
#	157234
#	168302
#	181265
#	194701
#	206331
#	221183
#	246624
#	263466
#	280572
#	296968
#	319549
#	345194
#
# Disc length: 4842 seconds
#
# Revision: 0
# Processed by: cddbd v1.5.2PL0 Copyright (c) Steve Scherf et al.
# Submitted via: EZCDAudioConverter 3.1.7.1
#
DISCID=6f12e818
DTITLE=Blandet 28-1-2016
DYEAR=2016
DGENRE=Rockeswing/Blues
TTITLE0=The Haley Oliver Band - Shape Up Heart C S (fin)
TTITLE1=The Haley Oliver Band - I'm Coming Home C R (superb)
TTITLE2=The Haley Oliver Band - 8.6 Degrees And Falling C R (superb)
TTITLE3=The Haley Oliver Band - Pick Me Up On Your Way Down C R (superb)
TTITLE4=Shanes - Do Wah Diddy G L (fin)
TTITLE5=Shanes - Wonderful World G L (superb)
TTITLE6=The Hub Caps - Heaven On Earth R S (superb)
TTITLE7=The Hub Caps - Can't Help Falling In Love K L (fin)
TTITLE8=The Hub Caps - Dreams Of You R S (superb)
TTITLE9=The Hub Caps - Don't Let Go R S (superb)
TTITLE10=The Hub Caps - Mary Lou R A B (superb)
TTITLE11=The Hub Caps - Sweetheart R A B (fin)
TTITLE12=The Fastback - Gotta Move R A B (superb)
TTITLE13=The Fastback - Breakfree R S (fin)
TTITLE14=The Fastback - Be My Girl G L (superb)
TTITLE15=TT Grace - Sh-Boom R S (superb)
TTITLE16=TT Grace - High School Confidential R R (fin)
TTITLE17=Mojo Blues Band - Take A Train J B (superb)
TTITLE18=Mojo Blues Band - Lucky Boy Lion J B (superb)
TTITLE19=Mojo Blues Band - We're Both To Blame K L (superb)
TTITLE20=Mojo Blues Band - Whale Of A Time J B (fin)
TTITLE21=Mojo Blues Band - I Don't Care J B (superb)
TTITLE22=Mojo Blues Band - Wintertime Is Coming R B (superb)
TTITLE23=Mojo Blues Band - Barefoot Rock J B (superb)
EXTD=
EXTT0=
EXTT1=
EXTT2=
EXTT3=
EXTT4=
EXTT5=
EXTT6=
EXTT7=
EXTT8=
EXTT9=
EXTT10=
EXTT11=
EXTT12=
EXTT13=
EXTT14=
EXTT15=
EXTT16=
EXTT17=
EXTT18=
EXTT19=
EXTT20=
EXTT21=
EXTT22=
EXTT23=
PLAYORDER=
